<?xml version="1.0" encoding="UTF-8"?>
<!DOCTYPE svg PUBLIC "-//W3C//DTD SVG 1.1//EN" "http://www.w3.org/Graphics/SVG/1.1/DTD/svg11.dtd">
<!-- Creator: CorelDRAW 2018 (64 Bit) -->
<svg xmlns="http://www.w3.org/2000/svg" xml:space="preserve" width="35.214mm" height="45.363mm" version="1.1" style="shape-rendering:geometricPrecision; text-rendering:geometricPrecision; image-rendering:optimizeQuality; fill-rule:evenodd; clip-rule:evenodd"
viewBox="0 0 3521.4 4536.3"
 xmlns:xlink="http://www.w3.org/1999/xlink">
 <defs>
  <style type="text/css">
   <![CDATA[
    .str5 {stroke:#1F0F10;stroke-width:10;stroke-miterlimit:22.9256}
    .str1 {stroke:#3E1312;stroke-width:10;stroke-miterlimit:22.9256}
    .str4 {stroke:#561210;stroke-width:10;stroke-miterlimit:22.9256}
    .str0 {stroke:#811618;stroke-width:10;stroke-miterlimit:22.9256}
    .str3 {stroke:#A52122;stroke-width:10;stroke-miterlimit:22.9256}
    .str2 {stroke:#D33B2B;stroke-width:10;stroke-miterlimit:22.9256}
    .fil5 {fill:#1F0F10}
    .fil1 {fill:#3E1312}
    .fil4 {fill:#561210}
    .fil0 {fill:#811618}
    .fil3 {fill:#A52122}
    .fil2 {fill:#D33B2B}
   ]]>
  </style>
 </defs>
 <g id="Camada_x0020_1">
  <metadata id="CorelCorpID_0Corel-Layer"/>
  <g id="_2048811232784">
   <path class="fil0 str0" d="M770.59 2124.39c-38.36,34.65 -192.66,404.08 -242.13,496.27 -41.76,77.81 -219.1,450.19 -250.27,523.52l907.73 -399.61 -193 997.84c159.17,13.89 488.64,7.72 653.72,7.72 199.89,0 477.14,1.02 669.79,-5.01 -27.66,-235.38 -67.72,-465.59 -99.92,-703.66 -14.35,-106.1 -112.9,-701.31 -115.84,-701.84 -10.9,4.89 -163.26,67.6 -463.31,202.91 -180.26,83.14 -312.34,151.11 -445.39,190.91l97.72 -521.2c7.81,-41.65 19.59,-73.63 27.82,-99.75 -64.78,0 -381.49,10.23 -439.8,11.13l-107.12 0.77z"/>
   <path class="fil1 str1" d="M2100.67 2339.62c23.7,146.81 92.4,528.53 115.84,701.84 32.2,238.07 72.26,468.28 99.92,703.66l606.02 4.02 578.51 -3.46c-3.72,-43.45 -66.18,-159.39 -88.11,-207.6 -195.62,-430.12 -466.76,-943.17 -653.59,-1369.42 -7.14,-16.28 -12.34,-30.28 -21.73,-49.85l-31.28 -50.31c-60.83,33.26 -563.55,236.16 -605.58,271.12z"/>
   <path class="fil2 str2" d="M1728.72 114.35c-81.02,352.12 -150.48,695.05 -216.03,1021.59 -223,1076.3 -220.31,1062.02 -320.72,1597.5 133.05,-39.8 323.78,-134.89 450.48,-193.14 192.27,-84.23 303.36,-136.37 458.22,-200.68 -7.32,-53.04 -4.27,-37.29 -17.3,-143.29l-62.11 -428.36c-28.17,-186.3 -55.57,-375.19 -83.94,-570.54 -36.3,-227.57 -122.99,-963.65 -188.22,-1127.34 -6.01,-15.09 -19.39,40.13 -20.38,44.26z"/>
   <path class="fil3 str3" d="M1937.32 1197.43c28.37,195.35 53.55,384.75 81.71,571.04 27.13,189.03 51.93,383.68 81.64,571.15 67.46,-27.4 503.6,-215.37 605.58,-271.12 -164.32,-391.54 -470.43,-980.74 -662.43,-1392.32 -21.25,-45.56 -37.51,-89.52 -61.81,-137.94 -44.51,-93.48 -179.09,-396.07 -224.77,-458.69 -8.48,-11.62 -2.36,7.43 1.92,28.37 73.54,359.89 117.26,726.53 178.16,1089.51z"/>
   <path class="fil1 str1" d="M295.63 3135.79c-11.63,5.82 -4.95,2.88 -17.44,8.39l49.96 599.13 664.77 -0.9 193 -997.84 -890.29 391.22z"/>
   <path class="fil3 str3" d="M770.59 2124.39l108.01 4.19c73.86,2.01 141.76,0.53 214.31,4.4 70.2,3.76 140.14,9.53 209.87,15.92 64.52,-292.76 152.54,-716.94 209.91,-1012.96 65.55,-326.54 144.02,-706.99 225.04,-1059.11 -3.66,2.63 -19.46,26.87 -24.56,37.32 -58.93,120.92 -303.02,653.79 -349.03,749.12l-419.12 876.84c-43.26,90.67 -155.59,314.28 -174.43,384.28z"/>
   <path class="fil2 str2" d="M2989.6 4385.66c-7.44,-187.74 -61.03,-424.72 -67.15,-636.52l-606.02 -4.02 81.55 526.36c10.37,67.35 25.8,130.11 30.13,188.08l561.49 -73.9z"/>
   <path class="fil3 str3" d="M386.63 4370.88c47.41,23.61 159.85,34.2 224.96,46.5 72.39,13.66 155.94,23.68 227.1,42.18 32.51,-75.62 62.29,-248.42 84.77,-348.79 17.91,-79.9 75.44,-300.41 69.46,-368.36l-664.77 0.9 58.48 627.57z"/>
   <path class="fil3 str3" d="M2989.6 4385.66c69.24,-37.12 141.16,-166.41 196.63,-232.95l314.73 -407.03 -578.51 3.46c6.12,211.8 59.71,448.78 67.15,636.52z"/>
   <path class="fil4 str4" d="M386.63 4370.88l-58.48 -627.57 -323.91 1.73c50.38,102.72 126.5,216.84 185.44,315.46 37.71,63.12 155.06,276.2 196.95,310.38z"/>
   <path class="fil5 str5" d="M4.24 3745.04l323.91 -1.73 -49.96 -599.13c-25.71,44.87 -40.5,91.02 -67.62,141.56 -30.11,56.14 -49.03,98.26 -73.87,154.04 -30.02,67.42 -126.48,236.65 -132.46,305.26z"/>
  </g>
 </g>
</svg>
