<?xml version="1.0" encoding="UTF-8"?>
<!DOCTYPE svg PUBLIC "-//W3C//DTD SVG 1.1//EN" "http://www.w3.org/Graphics/SVG/1.1/DTD/svg11.dtd">
<!-- Creator: CorelDRAW 2018 (64 Bit) -->
<svg xmlns="http://www.w3.org/2000/svg" xml:space="preserve" width="35.214mm" height="45.363mm" version="1.1" style="shape-rendering:geometricPrecision; text-rendering:geometricPrecision; image-rendering:optimizeQuality; fill-rule:evenodd; clip-rule:evenodd"
viewBox="0 0 3521.4 4536.3"
 xmlns:xlink="http://www.w3.org/1999/xlink">
 <defs>
  <style type="text/css">
   <![CDATA[
    .fil1 {fill:black}
    .fil2 {fill:#00748D}
    .fil0 {fill:#00758D}
    .fil3 {fill:#01738D}
   ]]>
  </style>
 </defs>
 <g id="Camada_x0020_1">
  <metadata id="CorelCorpID_0Corel-Layer"/>
  <g id="_2048807648928">
   <path class="fil0" d="M2695.28 1355.81c75.06,51.12 176.14,100.96 280.34,89.36 84.26,-9.39 72.93,-60.88 128.74,-229.73 27.32,-82.65 18.57,-118.01 -9.25,-197.4 -108.87,-310.59 -383.22,-329.82 -378.74,-564.27 5.43,76.03 35.23,131.95 79.46,177.07 18.93,19.3 41.54,43.61 64.42,62.57 21.64,17.94 48.71,33.66 72.01,55.17 180.63,166.76 141.21,211.27 203.86,315.13 68.68,-134.69 -86.46,-374.02 -121.13,-478.99 59.39,55.68 78.12,138.53 119.49,206.89 10.56,17.45 -1.04,0.22 11.53,15.39l9.91 9.12c84.45,-100.26 68.08,-256.64 148.09,-353.56 -48.97,77.78 -44.25,137.69 -70.8,239.03 -49.12,187.54 -88.81,64.81 -55.68,215.87 75.77,345.48 -229.73,613.87 -23.63,1057.03 46.74,100.51 162.66,330.51 252.05,387.85 10.26,-11.68 63.39,-155.8 78.91,-181.97 44.98,-75.88 31.4,-94.7 31.39,-196.31 0,-152.4 0,-304.8 0,-457.2 0,-84.41 10.33,-133.76 -21.21,-206.29 -64.76,-148.96 -162.14,-341.67 -171.77,-505.8 60.67,164.24 51.16,178.5 134.68,364.34l57.54 123.98c0.35,-432.49 -0.45,-864.9 -1.44,-1297.4l-3512.57 -0.25 -0.36 3760.83c104.95,-1.35 210.58,-0.25 315.61,-0.25 108.55,0 131.03,-0.12 152.31,-0.26 18.96,-0.12 33.14,-21.87 103.56,-61.02 209.34,-116.4 368.23,2.65 500.47,1.52 -36.78,-16.45 -120.06,-112.12 -117.71,-195.96 7.79,68.23 38.53,102.06 80.43,142.14l63.81 54.73c23.13,20.99 39.02,23.07 76.8,33.8 93.75,26.62 104,25.07 207.13,25.05 193.35,-0.02 1053.33,11.72 1143,-3.83 45.39,-144.65 79.47,-171.87 204.48,-219.63 18.48,-7.06 11.07,-3.92 20.03,-9.51 -266.84,-40.26 -343.82,-12.58 -606.22,16.1 -114.33,12.49 -199.43,12.54 -310.4,-8.72 -100.5,-19.26 -195.17,-43.34 -285.59,-12.27 15.21,-2.29 48.32,-18.45 75.05,-22.35 95.68,-13.94 192.5,17.67 286.35,23.49 120.52,7.48 259.26,-22 372.22,-44.11 332.87,-65.16 411.76,-49.78 719.15,48.48 -23.98,-51.27 -171.78,-159.7 -237.94,-203.52l-399.33 -250.23c-97.51,-16.86 -425.43,86.33 -529.29,109.85 -128.49,29.1 -253.38,48.87 -392.45,37.15 -131.35,-11.07 -231.41,-54.47 -353.79,-76.27 -156.72,-27.92 -223.5,29.17 -351.6,66.53 -103.23,30.11 -259.13,54.25 -372.35,62 56.2,-28.38 278.77,-56.49 369.57,-89.66 159.94,-58.41 166.38,-95.44 372.38,-85.21 -7.51,-7.82 -5.44,-6.06 -15.53,-14.35l-219.27 -162.47c-71.32,-50.52 -179.4,-97.66 -243.67,-157.59 151.57,51.14 375.96,253.66 526.87,331.67 167.65,86.67 600.92,67.62 710.46,-16.84 -38.63,-34.86 -128.04,-80.03 -176.26,-111.27 -152.06,-98.49 -315.96,-331.03 -481.16,-360.45 -14.87,49.29 -7.83,133.33 -176.26,151.04 11.61,-43.88 34.81,-74.56 59.81,-97.99 21.7,-20.33 49.83,-31.05 74.76,-42.65 25.35,-11.79 9.5,0.64 28.07,-17.51 -136.89,-10.69 -332.27,0.41 -435.03,-65.79 -82.83,-53.36 -212.05,-166.27 -260.01,-236.92 25.6,12.14 37.41,28.15 58.88,48.85 155.97,150.42 227.84,216.74 478.67,210.08 -10.07,-41.45 -6.28,-14.71 -36.75,-42.57 -7.64,-7 -24.49,-29.93 -32.2,-43.86 -19.93,-36.03 -24.92,-73.78 -26.93,-121.45 45.11,17.71 73.85,45.72 95.32,78.28 49.72,75.4 18.78,62.33 11.2,124.77 65.06,14.28 130.37,4.28 202.92,25.03 168.09,48.1 255.43,190.97 390.61,287.01 83.45,59.29 187.14,108.79 281.37,167.66 56.89,35.53 96.84,4.87 166.75,-16.16 43.43,-13.07 139.19,-31.18 171.41,-46.17 -18.34,-34.24 -54.26,-75.35 -80.32,-119.65 -64.36,-109.43 -102.59,-236.2 -130.16,-360.74 -4.09,-18.49 -6.12,-61.64 -23.36,-73.41 -246.44,-57.64 -406.14,-217.29 -632.03,-253.94 -67.86,-11.01 -130.58,-3.42 -201.25,-18.23 -151.25,-31.71 -339.43,-133.6 -404.22,-259.74 19.91,15.05 13.81,12.46 30.62,32.4 56.47,66.98 133.89,110.34 215.28,148.59 149.15,70.09 207.41,39.27 364.56,57.92 238.23,28.27 399.82,186.79 618.96,219.94l-19.91 -175.31c-143.33,-61.97 -225.7,-124.54 -310.47,-214.14l-119.56 -142.64c-30.27,-43.47 -61.88,-119.58 -103.85,-153.64 -62.71,71.1 -243.97,84.32 -336.15,26.39 -202.39,-127.18 -98.91,-54.17 -287.61,-133.78 137.1,23.99 191.23,61.33 297.91,123.59 97.46,56.89 255.91,25.91 318.44,-41.34 -51.1,-129.71 -208.2,-405.06 -265.43,-556.83 14.38,33.29 74.35,134.2 99.67,172.65 88.34,-85.18 68.87,-215.94 131.33,-315.32 -59.11,104.15 -21.97,267.42 -118.65,332.22 24.32,97.18 220.3,409.48 273.69,485.82 76.07,108.75 254.67,294.47 417.18,338.48 5.06,-137.47 16.98,-209.23 37.21,-336.59 -197.43,-19.94 -317.27,-147.4 -366.21,-335.32 -45.9,-176.27 13.41,-274.02 152.8,-348.29 45.71,-24.36 68.82,-40.23 107.77,-64.56 -13.25,18.94 -21.58,23.53 -47.62,40.01 -52.56,33.27 -111.11,59.26 -153.13,100.79 -180.96,178.82 61.48,598.15 309.14,579.76 22.2,-29.16 34.55,-92.59 48.09,-129.43 13.67,-37.21 43.85,-87.2 30.8,-126.22 -21.74,-65.01 -131.97,-114 -152.25,-183.45 16.26,36.71 115.26,108.33 172.22,173.44 29.58,-56.81 56.37,-129.76 80.91,-189.45 28.36,-68.99 76.77,-163.95 68.44,-192.21 -60.57,-23.6 -62.93,19.58 -114.2,-53.76 -22.69,-32.44 -40.14,-70.5 -46.49,-117.77 123.17,20.88 130.37,135.26 158.01,157.26 24.82,-3.12 11.25,4.9 24.21,-16.81 0.46,-0.77 7.19,-22.94 7.92,-25.65 65.25,-239.35 8.95,-234.43 -4.61,-437.94 34.34,105.03 59.87,219.33 49.12,348.68 27.75,-9.69 47.97,-55.64 77.97,-76.05 33.48,-22.77 72.33,-31.03 116,-35.24 -13.28,46.78 -39.36,73.47 -68.41,99.48 -69.81,62.48 -68.3,21.19 -126,28.81 -25.61,75.68 -39.42,151.77 -71.47,239.82 -22.46,61.7 -69.21,173.53 -82.46,238.1 47.13,-29.98 78.1,-64.47 128.78,-90.62 28.82,-14.88 49.86,-12.8 77.78,-23.36 35.81,-13.54 34.53,-27.1 57.91,-46.69 -43.88,83.16 -70.68,26.23 -212.81,145.3 -83.47,69.92 -87.64,96.22 -127.1,228.95 -60.94,204.94 -72.07,403.37 -30.99,623.48 32.98,176.68 95.62,399.39 182.73,529.72 84.3,126.11 271.18,275.54 397.7,311.05 44.66,-223.11 1.9,-275.77 -73.18,-440.64 -43.35,0.72 -86.36,7.18 -99.01,40.87 6.79,-38.85 37.78,-46.2 72.58,-64.96 -8.15,-19.27 0.16,-1.65 -9.1,-16.51 -0.96,-1.54 -9.94,-14.47 -10.39,-15.09 -9.71,-13.27 -12.43,-15.59 -22.75,-28.04 -43.47,-52.41 -96.15,-112.61 -108.98,-185.13 87.89,174.91 218.25,218.58 296.73,428.75 35.3,-15.42 55.34,-27.23 101.35,-29.65l-89.08 45.17c0.14,49.91 14.74,92.03 15.34,147.58 0.58,52.89 -8.67,102.16 -7.93,152.45 46.67,34.37 105.69,63.34 155.14,94.36 51.77,32.48 92.59,76.37 145.79,102.3 11.61,-120.85 49.25,-265.18 31.99,-390.62 -22.83,-165.98 -144.24,-271.98 -243.97,-382.42 -202.01,-223.73 -147.21,-266.33 -351.89,-250.32l72.16 -22.82c27.4,-1.97 50.38,4.53 73.17,9.46 -16.31,-42.11 -58.46,-103.43 -81.82,-158.74 -92.24,-218.35 -87.69,-378.84 -21.03,-591.05 -26.99,94.43 -37.8,221.4 -16.82,332.31 13.96,73.77 59.51,218.22 103.24,263.14 61.81,-36.79 77.3,-57.43 115.19,-129.1 44.16,-83.52 30.82,-107.21 28.22,-193.46 -0.08,28.25 17.37,57.41 11.71,98.92 -13.41,98.23 -65.2,194.59 -144.86,241.59 23.92,69.67 125.98,190.69 177.1,241.33 27.63,27.37 45.47,35.86 69.77,65.53 48.39,59.11 95.41,85.34 145.11,134.29 26.43,26.03 40.3,41.99 63.4,72.09 19.55,25.49 39.77,54.2 61.68,75.48 45.77,-20.4 79.28,-52.61 143.01,-50.3 -51.22,14.31 -96.54,34.59 -130.02,73.97 35.79,99.54 62.11,117.8 68.6,246.71 5.04,100.08 0.69,200.04 -8.98,299.35 -24.72,253.8 -18,132.43 103.21,344.69 72.96,127.76 28.99,95.64 205.4,94.54 -13.9,-349.42 13.01,-713.64 -0.59,-1062.01 -2.23,-57.24 -132.4,-184.09 -177.74,-227.62 -108.97,-104.62 -180.27,-241.43 -262.99,-386.9 -57.65,24.52 -110.47,57.43 -185.68,55.74 74.39,-27.04 110.03,-32.14 175.71,-77.66 -24.81,-99.59 -60.56,-164.11 -70.77,-286.14 -11.37,-135.73 5.7,-202.49 30.5,-323.25 -105.26,16.77 -268.39,-7.82 -330.5,-101.57z"/>
   <path class="fil1" d="M1291.45 4049.49c23.31,36.53 66.92,190.52 85.17,244.24 9.43,27.76 63.02,225.9 91.57,233.5l118.54 0.02c41.56,-31.98 127.17,-394.26 171.19,-469.28l-9.64 468.8 130.75 0.46 0.16 -631.86 -182.4 0.02c-38.88,10.27 -129.88,417 -177.3,477.75 -18.9,-77.55 -53.97,-165.12 -80.2,-243.78 -95.58,-286.54 -28.07,-235.82 -272.82,-230.15l3.44 627.95 132.34 -3.2 -10.8 -474.47z"/>
   <path class="fil0" d="M3093.09 4059.91c29.64,31.06 109.51,184.84 136.98,234.65 33.13,60.06 97.1,186.11 134.65,232.11l151.6 -1 0.22 -629.77 -135 -0.32 -5.53 425.95c-1.48,-1.63 -3.42,-3.57 -4.95,-5.37 -29.39,-34.47 -195.04,-352.89 -243.41,-420.46l-166.8 2.62 -0.35 627.76 137.21 1.16 -4.62 -467.33z"/>
   <path class="fil0" d="M2515.35 3994.34c269.57,-54.64 273.25,404.57 77.42,434.56 -136.67,20.93 -197.37,-54.87 -205.92,-176.62 -8.81,-125.26 14,-234.74 128.5,-257.94zm-272 284.18c19.33,198.66 156.91,283.93 370.32,258.98 205.44,-24.01 277.42,-169.49 252.15,-394.51 -22.61,-201.32 -159.19,-282.45 -376.94,-256.07 -203.23,24.62 -267.14,169.49 -245.53,391.6z"/>
   <path class="fil1" d="M488.51 3898.52c1.17,140.03 -10.22,319.15 3.34,453.93 13.57,134.8 125.88,183.35 273.64,182.65 153.08,-0.73 254.8,-49.1 269.36,-188.91 13.82,-132.67 3.41,-312.89 3.75,-451.42l-134.14 5.13c1.02,112.02 -0.05,224.24 0.27,336.29 0.37,127.21 -8.32,199.54 -147.91,196.16 -131.92,-3.19 -136.36,-83.39 -136.09,-204.62 0.24,-110.31 -1.2,-221.16 0.39,-332.47l-132.61 3.26z"/>
   <path class="fil1" d="M1.25 3895.44c1.47,581.53 -62.42,638.51 434.43,631.46l-0.65 -104.61c-338.84,-9.91 -304.36,66.99 -299.88,-525.48l-133.9 -1.37z"/>
   <polygon class="fil1" points="2009.66,4527.08 2149.09,4527.23 2148.93,4515.59 2149,3905.99 2149.06,3895.31 2010.12,3895.84 "/>
   <path class="fil0" d="M3147.52 3766.15c-12.82,-28.82 -1.15,-17.83 -30.45,-36.48 -49.09,-31.25 -225.14,-120.82 -278.29,-135.48 -147.6,-40.72 -261.96,46.71 -285.06,171.64l593.8 0.32z"/>
   <path class="fil2" d="M1091.26 3765.23c-21.64,-18.38 -41.98,-22.87 -69.28,-31.63 -155.03,-49.74 -300.77,-85.44 -452.92,-7.41l-52.35 39.86 574.55 -0.82z"/>
   <path class="fil3" d="M3442.19 2373.65l78.53 90.76 0 -283.46c-26.05,34.16 -70.64,142.09 -78.53,192.7z"/>
  </g>
 </g>
</svg>
