<?xml version="1.0" encoding="UTF-8"?>
<!DOCTYPE svg PUBLIC "-//W3C//DTD SVG 1.1//EN" "http://www.w3.org/Graphics/SVG/1.1/DTD/svg11.dtd">
<!-- Creator: CorelDRAW 2018 (64 Bit) -->
<svg xmlns="http://www.w3.org/2000/svg" xml:space="preserve" width="35.214mm" height="45.363mm" version="1.1" style="shape-rendering:geometricPrecision; text-rendering:geometricPrecision; image-rendering:optimizeQuality; fill-rule:evenodd; clip-rule:evenodd"
viewBox="0 0 3521.4 4536.3"
 xmlns:xlink="http://www.w3.org/1999/xlink">
 <defs>
  <style type="text/css">
   <![CDATA[
    .str2 {stroke:#263F82;stroke-width:20;stroke-miterlimit:22.9256}
    .str8 {stroke:#021258;stroke-width:10;stroke-miterlimit:22.9256}
    .str1 {stroke:#031354;stroke-width:10;stroke-miterlimit:22.9256}
    .str3 {stroke:#051D69;stroke-width:10;stroke-miterlimit:22.9256}
    .str6 {stroke:#061B64;stroke-width:10;stroke-miterlimit:22.9256}
    .str9 {stroke:#09216D;stroke-width:10;stroke-miterlimit:22.9256}
    .str4 {stroke:#0D2672;stroke-width:10;stroke-miterlimit:22.9256}
    .str7 {stroke:#132B74;stroke-width:10;stroke-miterlimit:22.9256}
    .str5 {stroke:#1C357E;stroke-width:10;stroke-miterlimit:22.9256}
    .str0 {stroke:#1D377F;stroke-width:10;stroke-miterlimit:22.9256}
    .fil9 {fill:#020426}
    .fil12 {fill:#021258}
    .fil7 {fill:#021459}
    .fil1 {fill:#031354}
    .fil4 {fill:#031453}
    .fil5 {fill:#051D69}
    .fil10 {fill:#061B64}
    .fil13 {fill:#09216D}
    .fil6 {fill:#0D2672}
    .fil2 {fill:#112B78}
    .fil11 {fill:#132B74}
    .fil8 {fill:#1C357E}
    .fil0 {fill:#1D377F}
    .fil3 {fill:#263F82}
   ]]>
  </style>
 </defs>
 <g id="Camada_x0020_1">
  <metadata id="CorelCorpID_0Corel-Layer"/>
  <path class="fil0 str0" d="M1176.06 2568.8l-21.79 12.79 -1.65 23.54 -81.54 614.36 -0.16 43.35c140.36,29.8 2075.61,1090.55 2175.91,1113.92 38.62,-73.01 80.49,-136.95 126.32,-207.85 48.65,-75.26 85.89,-147.92 133.59,-219.15 -30.83,-46.04 -50.79,-55.26 -87.27,-98.39l-1198.23 -1326.64c-59.47,-58.46 -141.51,-144.52 -181.15,-213.39l-24.46 0c-68.23,47.29 -703.39,218.39 -839.57,257.46z"/>
  <path class="fil1 str1" d="M350.65 2190.41c84.53,20.68 745.15,338.94 803.62,391.18l21.79 -12.79c-4.39,-203.31 140.9,-689.84 179.79,-926.08l6.08 -20.24 -209.78 -219.21c-37.47,-49.61 -56.3,-61.14 -95.59,-108.41l-288.24 -343.69c-63.44,-71.61 -175.66,-176.44 -166.99,-212.7l-27.89 -37.53c-33.04,84.94 -46.59,263.75 -61.39,365.52l-161.4 1123.95z"/>
  <path class="fil2" d="M16.48 4243.17c21.05,21.28 0.84,8.74 32.92,25.68l145.26 41.12c141.69,34.63 495.54,139.1 582.99,141.05l293.27 -1188.18 0.16 -43.35c-64.92,27.15 -206.4,-22.16 -298.05,-33.38 -77.07,72.58 -703.02,1015.42 -756.55,1057.06z"/>
  <path class="fil3 str2" d="M1892.15 1349.88l128.18 956.69 -4.7 4.77 24.46 0c80.42,6.25 283.81,-64.13 405.52,-91.06 139.87,-30.93 103.75,0.74 156.82,-363 8.2,-56.21 50.3,-233.78 31.74,-295.16l-724.04 -250.67c-20.35,20.86 -18.26,-47.98 -17.98,38.43z"/>
  <path class="fil4" d="M572 690.95l29.33 47.52 906.36 379.33 181.86 -973.91c-58.21,14.69 -205.04,101.42 -274.49,136.15 -101.13,50.56 -188.7,94.58 -284.68,142.31 -100.83,50.14 -486.29,233.15 -558.38,268.6z"/>
  <path class="fil5 str3" d="M16.48 4243.17c53.53,-41.64 679.48,-984.48 756.55,-1057.06l4.44 -12.74c-80.65,-19.45 -199.56,-103.13 -280.4,-150 -76.54,-44.36 -187.54,-133.94 -276.37,-131.92 -30.86,215.68 -69.02,433.38 -103.56,657.71 -19.71,128.07 -32.31,212.5 -50.54,339.33 -12.71,88.45 -50.12,259.89 -50.12,354.68z"/>
  <path class="fil6 str4" d="M1361.93 1622.48l-6.08 20.24c86.06,61.73 238.88,240.28 323.09,329.03 58.47,61.62 104.87,109.38 163.73,170.54 59.01,61.31 103.01,125.85 177.66,164.28l-128.18 -956.69 -16.22 -51.25 -374.29 -177.89 -139.71 501.74z"/>
  <path class="fil7 str1" d="M1176.06 2568.8c136.18,-39.07 771.34,-210.17 839.57,-257.46l4.7 -4.77c-74.65,-38.43 -118.65,-102.97 -177.66,-164.28 -58.86,-61.16 -105.26,-108.92 -163.73,-170.54 -84.21,-88.75 -237.03,-267.3 -323.09,-329.03 -38.89,236.24 -184.18,722.77 -179.79,926.08z"/>
  <path class="fil8 str5" d="M1875.93 1298.63l16.22 51.25c-0.28,-86.41 -2.37,-17.57 17.98,-38.43l724.04 250.67c-22.56,-59.23 -146.88,-227.61 -192.97,-297 -38.14,-57.44 -63.84,-86.63 -100.58,-140.76 -83.09,-122.36 -505.08,-771.03 -550.84,-824.32l86.15 998.59z"/>
  <path class="fil9" d="M220.7 2865.8l933.57 -284.21c-58.47,-52.24 -719.09,-370.5 -803.62,-391.18l-129.95 675.39z"/>
  <path class="fil10 str6" d="M1361.93 1622.48l139.71 -501.74 6.05 -2.94 -906.36 -379.33c-8.67,36.26 103.55,141.09 166.99,212.7l288.24 343.69c39.29,47.27 58.12,58.8 95.59,108.41l209.78 219.21z"/>
  <path class="fil11 str7" d="M1507.69 1117.8l-6.05 2.94 374.29 177.89 -63.09 -931.95c-9.76,-65.64 -84.2,-172.88 -123.29,-222.79l-181.86 973.91z"/>
  <path class="fil12 str8" d="M220.7 2865.8l0 25.65c120.11,58.69 477.36,276.58 552.33,294.66 37.84,-72.37 131.48,-221.94 183.17,-301.43 48.23,-74.13 103.7,-156.48 196.42,-279.55l1.65 -23.54 -933.57 284.21z"/>
  <path class="fil13 str9" d="M773.03 3186.11c97.11,22.53 215.87,55.47 297.89,76.73l81.7 -657.71c-53.44,47.79 -72.18,90.96 -107.03,146.52 -30.27,48.25 -58.48,85.52 -89.39,133.03 -46.25,71.12 -144.56,232.78 -183.17,301.43z"/>
 </g>
</svg>
