<?xml version="1.0" encoding="UTF-8"?>
<!DOCTYPE svg PUBLIC "-//W3C//DTD SVG 1.1//EN" "http://www.w3.org/Graphics/SVG/1.1/DTD/svg11.dtd">
<!-- Creator: CorelDRAW 2018 (64 Bit) -->
<svg xmlns="http://www.w3.org/2000/svg" xml:space="preserve" width="35.214mm" height="45.363mm" version="1.1" style="shape-rendering:geometricPrecision; text-rendering:geometricPrecision; image-rendering:optimizeQuality; fill-rule:evenodd; clip-rule:evenodd"
viewBox="0 0 3521.4 4536.3"
 xmlns:xlink="http://www.w3.org/1999/xlink">
 <defs>
  <style type="text/css">
   <![CDATA[
    .fil0 {fill:#E8282F}
    .fil1 {fill:#FFFEFE}
   ]]>
  </style>
 </defs>
 <g id="Camada_x0020_1">
  <metadata id="CorelCorpID_0Corel-Layer"/>
  <path class="fil0" d="M49.26 588.48c1.38,65.17 24.5,181.26 33.64,239.03 37.75,247.93 158.66,1223.26 258.3,1898.33 4.26,28.85 4.76,47.45 8.67,54.61 32.93,60.23 56.33,163.79 210.86,594.62 24.38,78.82 264.28,764.2 268.8,821.61 66.19,-1.55 1659.49,-488.54 1800.17,-531.45 93.97,-28.65 543.11,-173.1 602.57,-174.5l219.17 -1964.96c11.97,-94.32 28.36,-201.08 28.53,-295.22l0 -1.48 -323.63 -259.75c-109.52,-92.23 -212.01,-180.17 -325.82,-270.53l-484.16 -404.68c-48.9,-32.77 -155.78,-3.07 -251.31,9.11 -332.56,42.37 -680.85,102.4 -1017.8,141.47l-767.2 105.31c-80.12,11.99 -185.42,19.95 -260.79,38.48z"/>
  <path class="fil1" d="M290.75 769l106.72 333.52c183.5,-13.39 403.81,-56.1 591.64,-84.93 198.74,-30.49 398.23,-58.99 596.77,-88.18 327.93,-48.21 226.1,-85.16 444.98,155.96l346.83 360.57 826.3 -153.45c-83.46,-88.97 -940.36,-778.78 -952.59,-781.89 -51.91,-13.18 -1724.15,240.32 -1960.65,258.4z"/>
  <path class="fil1" d="M525.69 1742.56l119.64 365.77 742.77 -156.39 187.57 346.42 775.89 -174.44c-26.69,-47.12 -42.36,-57.11 -72.81,-97.35 -25.8,-34.09 -44.63,-56.26 -73.03,-92.98l-299.9 -389.89c-57.79,-74.97 -49.78,-48.42 -246.67,-13.92 -166.74,29.22 -1039.61,181.39 -1133.46,212.78z"/>
  <polygon class="fil1" points="763.9,2791.6 886.98,3187.59 1611.85,3004.49 1427.63,2641.97 "/>
 </g>
</svg>
